# xmcd
#
# Track frame offsets:
#	151
#	20193
#	30391
#	48730
#	62366
#	81831
#	101182
#	115247
#	128814
#	140601
#	155052
#
# Disc length: 2282 seconds
#
# Revision: 1
# Processed by: cddbd v1.5.2PL0 Copyright (c) Steve Scherf et al.
# Submitted via: audiograbber 1.83.01
#
DISCID=9908e80b
DTITLE=Northern Voodoo - Northern Voodoo
DYEAR=2014
DGENRE=Blues
TTITLE0=Devils Blues
TTITLE1=Hi-Tech Whiz Kid
TTITLE2=Voodoo Moon
TTITLE3=Voodoo Love
TTITLE4=When You Walked Away
TTITLE5=Roadhouse Calling
TTITLE6=Hot County Nights
TTITLE7=Payin More Dues
TTITLE8=Ain't Comin Back
TTITLE9=Someone Elses Money
TTITLE10=Let It Ride
EXTD=
EXTT0=
EXTT1=
EXTT2=
EXTT3=
EXTT4=
EXTT5=
EXTT6=
EXTT7=
EXTT8=
EXTT9=
EXTT10=
PLAYORDER=
